<?xml version="1.0" encoding="UTF-8"?><svg id="_0" xmlns="http://www.w3.org/2000/svg" viewBox="0 0 2520 2520"><defs><style>.cls-1{fill:#000;}.cls-1,.cls-2{stroke-width:0px;}.cls-2{fill:#fff;}</style></defs><circle class="cls-2" cx="1260" cy="1260" r="1260"/><path class="cls-1" d="M2160,1080h-506.81c-99.41,0-180,80.59-180,180s80.59,180,180,180h506.81c99.41,0,180-80.59,180-180s-80.59-180-180-180Z"/><path class="cls-1" d="M2142.16,1882.98c22.04-29.87,35.08-66.79,35.08-106.76,0-99.41-80.59-180-180-180-59.44,0-112.14,28.82-144.92,73.24,0,0,0,0,0,0-129.96,187.64-346.78,310.55-592.32,310.55-397.65,0-720-322.35-720-720s322.35-720,720-720c245.53,0,462.36,122.9,592.32,310.55,0,0,0,0,0,0,32.78,44.42,85.48,73.24,144.92,73.24,99.41,0,180-80.59,180-180,0-36.86-11.09-71.13-30.1-99.67l.1-.07s0,0,0,0c-195.07-280.46-519.71-464.04-887.23-464.04-596.47,0-1080,483.53-1080,1080s483.53,1080,1080,1080c364.42,0,686.67-180.49,882.26-456.95l-.1-.07Z"/></svg>