<?xml version="1.0" encoding="UTF-8"?><svg id="Layer_1" xmlns="http://www.w3.org/2000/svg" viewBox="0 0 432 432"><defs><style>.cls-1{fill:#ed1c24;stroke-width:0px;}</style></defs><path class="cls-1" d="M284.59,148.26s23.68,43.96,6.78,73.82c-16.9,29.86-33.4,5.5-34.58-58.15-1.18-63.65-33.79-119.84-82.91-142.24,22.86,28.99,22.5,53.25,15.26,82.58-7.35,29.75-32.12,81.98-46.28,81.98s-5.15-27.02-41.61-49.33c25.31,17.16-15.02,58.34-15.02,140.9,0,70.15,57.09,127.5,127.5,127.5-19.88,0-53.1-20.62-72.92-68.4s-.51-104.71,38.12-148.43c-28.27,52.78-5.55,99.1,39.44,115.86,37.4,13.93,45.95,33,45.95,62.56,0,25.48-24.5,38.41-50.6,38.41,70.42,0,127.5-50.92,127.5-127.5s-56.65-129.56-56.65-129.56Z"/></svg>