<?xml version="1.0" encoding="utf-8"?>
<!-- Generator: Adobe Illustrator 28.3.0, SVG Export Plug-In . SVG Version: 6.00 Build 0)  -->
<svg version="1.1" id="Layer_1" xmlns="http://www.w3.org/2000/svg" xmlns:xlink="http://www.w3.org/1999/xlink" x="0px" y="0px"
	 viewBox="0 0 648 271.4" style="enable-background:new 0 0 648 271.4;" xml:space="preserve">
<style type="text/css">
	.st0{fill:#2A3533;}
	.st1{fill:none;stroke:#42F2F7;stroke-width:26;stroke-linecap:round;stroke-linejoin:round;}
	.st2{fill:url(#SVGID_1_);}
	.st3{display:none;fill:#2A3533;}
	.st4{fill:#42F2F7;}
	.st5{display:none;fill:#69AEBB;}
	.st6{fill:#86ADAF;}
	.st7{fill:#49FFFF;}
	.st8{fill:#231F20;}
	.st9{fill:#3D4F4C;}
	.st10{fill:none;stroke:#49FFFF;stroke-miterlimit:10;}
	.st11{fill:#0B1A31;}
	.st12{fill:none;stroke:#E7F5F7;stroke-width:26;stroke-linecap:round;stroke-linejoin:round;}
</style>
<rect x="-856.3" y="430.3" class="st0" width="700.5" height="313.8"/>
<path class="st1" d="M-549.1,22.5h-46.2c-26.5,0-47.9,21.4-47.9,47.9s21.4,47.9,47.9,47.9h46.2"/>
<path class="st1" d="M-596.2,70.4h46.2c26.5,0,47.9,21.4,47.9,47.9s-21.4,47.9-47.9,47.9h-46.2"/>
<path class="st1" d="M-454,248.9v-52.5c-2.3-0.2-2.8-0.5-5.2-1c-4.1-0.8-8.1-2.1-12.1-4c-3.9-1.8-7.8-4.1-11.3-6.9
	c-3.8-2.9-7.2-6.5-10.1-10.6s-5.2-8.9-6.9-14.1c-1.7-5.3-2.5-11.2-2.5-17.5v-24"/>
<path class="st1" d="M-400.8,237.3v-40.4c2.4-0.2,2.8-0.5,5.3-1c4.1-0.8,8.1-2.2,12.1-4c3.9-1.8,7.7-4.1,11.2-6.8
	c3.9-3,7.3-6.6,10.2-10.7c2.8-4.1,5.1-8.8,6.8-14c1.7-5.3,2.5-9.3,2.5-12.6"/>
<path class="st1" d="M-453.1,148.7h45.1c1.5-0.3,3-0.6,4.5-0.9c0.6-0.1,1.1-0.4,1.6-0.7c0-0.1,0.3-0.3,0.5-0.8l0,0
	c0,0,0.4-0.9,0.4-3.4V99.6"/>
<path class="st1" d="M-164.7,166.2h-45.1c-2.8,0-5.8-0.3-8.9-1c-3.1-0.6-6.3-1.7-9.4-3c-3.1-1.4-6.1-3.2-9-5.4c-3-2.3-5.7-5.2-8-8.4
	c-2.3-3.3-4.1-7-5.5-11.2c-1.3-4.1-2-8.8-2-13.8V65.2c0-2.8,0.3-5.8,1-8.9c0.6-3.2,1.7-6.3,3-9.4c1.4-3.2,3.2-6.2,5.5-9.1
	c2.4-3,5.2-5.7,8.4-7.9c3.3-2.3,7-4.1,11.1-5.4s8.8-2,13.8-2h72.6"/>
<path class="st1" d="M-252.5,126.9v65.4c0,3.4-0.7,6.6-2,9.7c-1.2,2.9-3,5.4-5.1,7.5c-2.1,2.1-4.8,3.9-7.7,5.2
	c-3,1.2-6.1,1.9-9.4,1.9c-2.9,0-5.8-0.5-8.6-1.6c-3.3-1.2-6.2-3.1-8.7-5.7l-58.7-61.3"/>
<path class="st1" d="M-401,98.7V84.6c0-5.1,1.5-10,4.2-14.1c2.6-3.9,6.1-6.9,10.2-8.9l0.3-0.1l0.3-0.1c3-1.2,6-1.9,9.2-1.9
	c1.5,0,3.1,0.2,4.7,0.5c4.8,1,9.2,3.4,12.6,7.1l25.2,29.2"/>
<polyline class="st1" points="-137,118.4 -206.4,118.4 -206.4,68.6 -165.8,68.3 "/>
<path class="st1" d="M-500.9,22.5c0,26.5,21.4,47.9,47.9,47.9s47.9-21.4,47.9-47.9"/>
<path class="st1" d="M-354.4,22.5h47.5c10.2,0,18.5,8.3,18.5,18.5s-8.3,18.5-18.5,18.5h-11.5"/>
<path class="st1" d="M-312.2,118.3l15.4,0.1c16.3,0,29.5-13.2,29.5-29.5s-13.2-29.5-29.5-29.5h-21.5"/>
<path class="st1" d="M-94.3,22.5H-70c13.9,0,25.2,11.3,25.2,25.2c0,13.9-11.3,25.2-25.2,25.2h-24.3l46.4,45.1"/>
<line class="st1" x1="-453.1" y1="70.4" x2="-453.1" y2="118.3"/>
<linearGradient id="SVGID_1_" gradientUnits="userSpaceOnUse" x1="0" y1="135.7" x2="648" y2="135.7">
	<stop  offset="0" style="stop-color:#E7F5F7"/>
	<stop  offset="0.1513" style="stop-color:#D5F5F7"/>
	<stop  offset="0.4566" style="stop-color:#A5F4F7"/>
	<stop  offset="0.8844" style="stop-color:#58F2F7"/>
	<stop  offset="1" style="stop-color:#42F2F7"/>
</linearGradient>
<rect class="st2" width="648" height="271.4"/>
<g id="Layer_4">
	<g>
		<path class="st1" d="M118.9,315.4H72.7c-26.4,0-47.9,21.4-47.9,47.9s21.4,47.9,47.9,47.9h46.2"/>
		<polyline class="st1" points="531,411.3 461.6,411.3 461.6,361.5 502.2,361.2 		"/>
		<path class="st1" d="M167.1,315.4c0,26.5,21.4,47.9,47.9,47.9s47.9-21.4,47.9-47.9"/>
		<path class="st1" d="M313.6,315.4h47.5c10.2,0,18.5,8.3,18.5,18.5s-8.3,18.5-18.5,18.5h-11.5"/>
		<path class="st1" d="M355.8,411.2l15.4,0.1c16.3,0,29.5-13.2,29.5-29.5c0-16.3-13.2-29.5-29.5-29.5h-21.5"/>
		<path class="st1" d="M573.7,315.4H598c13.9,0,25.2,11.3,25.2,25.2c0,13.9-11.2,25.2-25.2,25.2h-24.3l46.4,45.1"/>
		<line class="st1" x1="214.9" y1="363.3" x2="214.9" y2="411.2"/>
		<path class="st1" d="M458.2,315.4h72.6"/>
	</g>
	<g>
		<path class="st1" d="M71.8,518.9H118c26.5,0,47.9,21.4,47.9,47.9s-21.4,47.9-47.9,47.9H71.8"/>
		<path class="st1" d="M214,697.4V645c-2.3-0.2-2.8-0.5-5.2-1c-4.1-0.8-8.1-2.1-12.1-4c-3.9-1.8-7.8-4.1-11.3-6.9
			c-3.8-2.9-7.2-6.5-10.1-10.6c-2.9-4.1-5.2-8.9-6.9-14.1c-1.7-5.3-2.5-11.2-2.5-17.5v-24"/>
		<path class="st1" d="M267.2,685.8v-40.4c2.4-0.2,2.8-0.5,5.3-1c4.1-0.8,8.1-2.2,12.1-4c3.9-1.8,7.7-4.1,11.2-6.8
			c3.9-3,7.3-6.6,10.2-10.7c2.8-4.1,5.1-8.8,6.8-14c1.7-5.3,2.5-9.3,2.5-12.6"/>
		<path class="st1" d="M214.9,597.2H260c1.5-0.3,3-0.6,4.5-0.9c0.6-0.1,1.1-0.4,1.6-0.7c0,0,0.3-0.3,0.5-0.8l0,0
			c0,0,0.4-0.9,0.4-3.4V548"/>
		<path class="st1" d="M503.3,614.7h-45.1c-2.8,0-5.8-0.3-8.9-1c-3.1-0.6-6.3-1.7-9.4-3c-3.1-1.4-6.1-3.2-9-5.4
			c-3-2.3-5.7-5.2-8-8.4c-2.3-3.3-4.1-7-5.5-11.2c-1.3-4.1-2-8.8-2-13.8v-58.2c0-2.8,0.3-5.8,1-8.9c0.6-3.2,1.7-6.3,3-9.4
			c1.4-3.2,3.2-6.2,5.5-9.1c2.4-3,5.2-5.7,8.4-7.9c3.3-2.3,7-4.1,11.1-5.4s8.8-2,13.8-2h72.6"/>
		<path class="st1" d="M415.5,575.4v65.4c0,3.4-0.7,6.6-2,9.7c-1.2,2.9-3,5.4-5.1,7.5s-4.8,3.9-7.7,5.2c-3,1.2-6.1,1.9-9.4,1.9
			c-2.9,0-5.8-0.5-8.6-1.6c-3.3-1.2-6.2-3.1-8.7-5.7l-58.7-61.3"/>
		<path class="st1" d="M267,547.2v-14.1c0-5.1,1.5-10,4.2-14.1c2.6-3.9,6.1-6.9,10.2-8.9l0.3-0.1l0.3-0.1c3-1.2,6-1.9,9.2-1.9
			c1.5,0,3.1,0.2,4.7,0.5c4.8,1,9.2,3.4,12.6,7.1l25.2,29.2"/>
		<path class="st1" d="M118.9,471H72.7c-26.4,0-47.9,21.4-47.9,47.9c0,26.5,21.4,47.9,47.9,47.9h46.2"/>
	</g>
</g>
<rect x="-680.6" y="318" class="st3" width="648" height="271.4"/>
<g>
	<path class="st4" d="M-719.1,582.7h-47.9c-34.9,0-63.2-28.3-63.2-63.2s28.3-63.2,63.2-63.2h47.9c7.5,0,13.5,6,13.5,13.5
		s-6,13.5-13.5,13.5h-47.9c-19.9,0-36.2,16.3-36.2,36.2c0,19.9,16.3,36.2,36.2,36.2h47.9c7.5,0,13.5,6,13.5,13.5
		C-705.7,576.7-711.7,582.7-719.1,582.7z"/>
	<path class="st4" d="M-720.1,632.4H-768c-7.5,0-13.5-6-13.5-13.5c0-7.5,6-13.5,13.5-13.5h47.9c19.9,0,36.2-16.3,36.2-36.2
		c0-19.9-16.3-36.2-36.2-36.2H-768c-7.5,0-13.5-6-13.5-13.5c0-7.5,6-13.5,13.5-13.5h47.9c34.9,0,63.2,28.3,63.2,63.2
		C-656.9,604.1-685.2,632.4-720.1,632.4z"/>
	<path class="st4" d="M-620.4,718.2c-7.5,0-13.5-6-13.5-13.5v-43.6c-3.4-0.9-6.7-2.3-10.1-3.7c-5-2.3-9.9-5.3-14.4-8.7
		c-5-3.8-9.4-8.5-13.2-13.9c-3.7-5.4-6.7-11.5-8.9-18.3c-2.2-6.7-3.3-14.3-3.3-22.3v-24.9c0-7.5,6-13.5,13.5-13.5
		c7.5,0,13.5,6,13.5,13.5v24.9c0,5.2,0.6,10,2,14c1.3,4.2,3.1,7.9,5.3,11s4.8,5.9,7.7,8.1c2.9,2.3,5.9,4.2,9.1,5.5
		c3.1,1.5,6.3,2.5,9.5,3.1c1.2,0.2,2.2,0.5,2.8,0.6c0.6,0.2,0.6,0.2,1,0.2c7.1,0.5,12.5,6.4,12.5,13.5v54.4
		C-607,712.2-613,718.2-620.4,718.2z"/>
	<path class="st4" d="M-565.2,706.2c-7.5,0-13.5-6-13.5-13.5v-41.9c0-7.1,5.4-12.9,12.5-13.5c0.4,0,0.4,0,1.1-0.2
		c0.7-0.2,1.6-0.4,2.8-0.6c3.2-0.6,6.4-1.7,9.5-3.1c3.1-1.5,6.2-3.3,9.1-5.5c2.9-2.3,5.5-5,7.7-8.1s3.9-6.8,5.3-11
		c1.7-5.2,2-7.7,2-8.9c0-7.5,6-13.5,13.5-13.5c7.5,0,13.5,6,13.5,13.5c0,4.8-1,10.1-3.3,17.1c-2.2,6.6-5.1,12.8-8.8,18.1
		c-3.7,5.5-8.3,10.3-13.4,14.2c-4.5,3.4-9.2,6.3-14.2,8.6c-3.3,1.6-6.7,2.8-10.2,3.8v31.1C-551.7,700.2-557.8,706.2-565.2,706.2z"/>
	<path class="st4" d="M-572.6,614.3h-46.8c-7.5,0-13.5-6-13.5-13.5c0-7.5,6-13.5,13.5-13.5h40.6v-37.6c0-7.5,6-13.5,13.5-13.5
		c7.5,0,13.5,6,13.5,13.5v44.9c0,3.4-0.4,6.2-1.3,8.5c-0.2,0.4-0.3,0.8-0.5,1.2c-0.8,1.7-1.9,3-3,4.3c-0.5,0.5-1.1,1-1.8,1.5
		c-1.9,1.2-3.8,2.2-6.1,2.8h-0.1c-1.9,0.4-3.7,0.8-5.5,1.1C-571.1,614.2-571.9,614.3-572.6,614.3z M-578.9,595.3L-578.9,595.3
		L-578.9,595.3z"/>
	<path class="st4" d="M-320.2,632.4H-367c-3.8,0-7.9-0.4-12-1.2c-4.2-0.8-8.4-2.2-12.5-4c-4.3-1.9-8.3-4.4-12-7.3
		c-4.3-3.2-8-7.2-11.1-11.7c-3.2-4.6-5.7-9.7-7.5-15.3c-1.8-5.6-2.7-11.8-2.7-18.4v-60.3c0-3.8,0.4-7.9,1.2-12
		c0.8-4.2,2.2-8.3,4-12.5c2-4.4,4.5-8.4,7.4-12.2c3.2-4.2,7.2-7.9,11.6-11s9.7-5.7,15.2-7.5c5.6-1.8,11.8-2.7,18.4-2.7h75.3
		c7.5,0,13.5,6,13.5,13.5s-6,13.5-13.5,13.5H-367c-3.7,0-7.2,0.5-10.2,1.5c-2.9,0.9-5.6,2.3-7.9,3.8c-2.3,1.6-4.3,3.4-5.8,5.5
		c-1.7,2.1-3,4.3-3.9,6.5c-1,2.3-1.8,4.6-2.2,7c-0.5,2.4-0.7,4.6-0.7,6.5v60.4c0,3.7,0.5,7.2,1.5,10.2c0.9,3,2.3,5.7,3.8,8
		s3.4,4.3,5.5,5.8c2.1,1.6,4.3,2.9,6.5,3.9c2.3,1,4.7,1.8,7,2.3c2.4,0.5,4.6,0.7,6.5,0.7h46.8c7.5,0,13.5,6,13.5,13.5
		C-306.6,626.4-312.7,632.4-320.2,632.4z"/>
	<path class="st4" d="M-436.4,684.6c-4.6,0-9.1-0.8-13.6-2.5c-5.4-2-10.1-5.1-14.1-9.3l-60.9-63.6c-5.2-5.4-5-13.9,0.4-19.1
		s13.9-5,19.1,0.4l60.9,63.6c1.1,1.2,2.4,2.1,3.8,2.6c3.1,1.1,6.1,1,8.8-0.1c1.3-0.5,2.6-1.5,3.6-2.5c1-1,1.9-2.3,2.5-3.6
		c0.6-1.5,0.9-3,0.9-4.7V578c0-7.5,6-13.5,13.5-13.5s13.5,6,13.5,13.5v67.9c0,5.4-1,10.6-3.2,15.5c-2,4.5-4.7,8.5-8.1,11.9
		c-3.5,3.4-7.8,6.3-12.3,8.2C-426.3,683.6-431.3,684.6-436.4,684.6z"/>
	<path class="st4" d="M-565.4,562.4c-7.5,0-13.5-6-13.5-13.5v-14.6c0-8,2.3-15.6,6.6-22.1c4-6.1,9.4-10.8,16-13.9c0,0,0.1,0,0.1-0.1
		l0.3-0.1c0.1-0.1,0.2-0.1,0.4-0.2l0.3-0.1c7.1-3,14.7-3.7,22.3-2.3c7.8,1.6,14.8,5.5,20.3,11.4c0.1,0.1,0.2,0.2,0.3,0.4l26.2,30.3
		c4.9,5.6,4.3,14.1-1.3,19c-5.6,4.9-14.1,4.3-19-1.3l-25.9-30c-1.7-1.7-3.5-2.8-5.7-3.2c-2.3-0.5-4.4-0.2-6.4,0.6l0,0
		c-2.1,1-3.7,2.5-5.1,4.5c-1.3,2.1-2.2,4.6-2.2,7.2v14.6C-552,556.4-558,562.4-565.4,562.4z"/>
	<path class="st4" d="M-291.5,582.8L-291.5,582.8h-72c-7.5,0-13.5-6-13.5-13.5v-51.7c0-7.4,6-13.4,13.4-13.5l42.1-0.3h0.1
		c7.4,0,13.4,6,13.5,13.4c0.1,7.5-5.9,13.5-13.4,13.6l-28.7,0.2v24.8h58.5c7.5,0,13.5,6,13.5,13.5C-278,576.8-284,582.8-291.5,582.8
		z"/>
	<path class="st4" d="M-619.5,533c-34.9,0-63.2-28.3-63.2-63.2c0-7.5,6-13.5,13.5-13.5c7.5,0,13.5,6,13.5,13.5
		c0,19.9,16.3,36.2,36.2,36.2s36.2-16.3,36.2-36.2c0-7.5,6-13.5,13.5-13.5s13.5,6,13.5,13.5C-556.3,504.7-584.6,533-619.5,533z"/>
	<path class="st4" d="M-467.8,521.7h-11.9c-7.5,0-13.5-6-13.5-13.5c0-7.5,6-13.5,13.5-13.5h11.9c3.1,0,5.7-2.5,5.7-5.7
		s-2.5-5.7-5.7-5.7h-49.3c-7.5,0-13.5-6-13.5-13.5s6-13.5,13.5-13.5h49.3c18,0,32.7,14.6,32.7,32.7S-449.8,521.7-467.8,521.7z"/>
	<path class="st4" d="M-457.4,582.9h-0.1l-16-0.1c-7.5-0.1-13.5-6.1-13.4-13.6c0.1-7.4,6.1-13.4,13.5-13.4h0.1l15.9,0.1
		c9.4,0,17.1-7.7,17.1-17.1c0-9.4-7.7-17.1-17.1-17.1h-22.3c-7.5,0-13.5-6-13.5-13.5c0-7.5,6-13.5,13.5-13.5h22.3
		c24.3,0,44.1,19.8,44.1,44.1S-433,582.9-457.4,582.9z"/>
	<path class="st4" d="M-199,582.5c-3.4,0-6.7-1.2-9.4-3.8l-48.2-46.8c-3.9-3.8-5.2-9.7-3.1-14.7s7.1-8.4,12.5-8.4h25.3
		c7,0,12.7-5.7,12.7-12.7c0-7-5.6-12.8-12.7-12.8h-25.2c-7.5,0-13.5-6-13.5-13.5s6-13.5,13.5-13.5h25.2c21.9,0,39.6,17.7,39.6,39.6
		c0,19.4-14,35.5-32.4,39l25,24.4c5.3,5.2,5.5,13.7,0.3,19.1C-191.9,581.2-195.5,582.5-199,582.5z"/>
	<path class="st4" d="M-619.5,582.7c-7.5,0-13.5-6-13.5-13.5v-49.7c0-7.5,6-13.5,13.5-13.5c7.5,0,13.5,6,13.5,13.5v49.7
		C-606,576.7-612,582.7-619.5,582.7z"/>
</g>
<rect x="-680.6" y="340" class="st5" width="648" height="1"/>
<rect x="-680.6" y="435.8" class="st5" width="648" height="1"/>
<rect x="-356" y="377" class="st5" width="323.4" height="1"/>
<rect x="-636.7" y="483.7" class="st5" width="487.5" height="1"/>
<rect x="-150.3" y="318" class="st5" width="1" height="144.6"/>
<g id="Layer_3">
	<rect x="-890.4" y="28.9" class="st4" width="167.2" height="169.7"/>
	<g>
		<path class="st6" d="M-723.3,28.9v169.7h-167.2V28.9H-723.3 M-697.3,2.9h-26h-167.2h-26v26v169.7v26h26h167.2h26v-26V28.9V2.9
			L-697.3,2.9z"/>
		<path class="st7" d="M-696.8,225.1h-220.1V2.4h220.2L-696.8,225.1L-696.8,225.1z M-915.9,224.1h218.2V3.4h-218.2V224.1z"/>
	</g>
	<g>
		<path class="st8" d="M-783.3,150.7h-46.2c-33.6,0-60.9-27.3-60.9-60.9s27.3-60.9,60.9-60.9h46.2c7.2,0,13,5.8,13,13s-5.8,13-13,13
			h-46.2c-19.2,0-34.9,15.7-34.9,34.9s15.7,34.9,34.9,34.9h46.2c7.2,0,13,5.8,13,13S-776.1,150.7-783.3,150.7z"/>
		<path class="st8" d="M-784.2,198.6h-46.2c-7.2,0-13-5.8-13-13s5.8-13,13-13h46.2c19.2,0,34.9-15.7,34.9-34.9s-15.7-34.9-34.9-34.9
			h-46.2c-7.2,0-13-5.8-13-13s5.8-13,13-13h46.2c33.6,0,60.9,27.3,60.9,60.9S-750.6,198.6-784.2,198.6z"/>
	</g>
	<rect x="-723.8" y="2.9" class="st7" width="1" height="221.7"/>
	<rect x="-890.9" y="2.9" class="st7" width="1" height="221.7"/>
	<rect x="-916.4" y="28.4" class="st7" width="219.2" height="1"/>
	<rect x="-749.8" y="2.9" class="st7" width="1" height="221.7"/>
	<rect x="-864.9" y="2.9" class="st7" width="1" height="221.7"/>
	<rect x="-916.4" y="172.1" class="st7" width="219.2" height="1"/>
	<rect x="-916.4" y="54.4" class="st7" width="219.2" height="1"/>
	<rect x="-916.4" y="198.1" class="st7" width="219.2" height="1"/>
</g>
<rect x="-856.3" y="430.3" class="st9" width="700.5" height="26"/>
<rect x="-1000.2" y="574.2" transform="matrix(6.123234e-17 -1 1 6.123234e-17 -1430.5187 -256.0655)" class="st9" width="313.8" height="26"/>
<rect x="-326.5" y="574.5" transform="matrix(6.123234e-17 -1 1 6.123234e-17 -756.7869 418.3076)" class="st9" width="314.4" height="26.1"/>
<rect x="-856.3" y="718.2" class="st9" width="700.5" height="26"/>
<g>
	<path class="st8" d="M-482.7,408.4h-46.2c-33.6,0-60.9-27.3-60.9-60.9s27.3-60.9,60.9-60.9h46.2c7.2,0,13,5.8,13,13s-5.8,13-13,13
		h-46.2c-19.2,0-34.9,15.7-34.9,34.9s15.7,34.9,34.9,34.9h46.2c7.2,0,13,5.8,13,13S-475.5,408.4-482.7,408.4z"/>
	<path class="st8" d="M-483.6,456.3h-46.2c-7.2,0-13-5.8-13-13s5.8-13,13-13h46.2c19.2,0,34.9-15.7,34.9-34.9s-15.7-34.9-34.9-34.9
		h-46.2c-7.2,0-13-5.8-13-13s5.8-13,13-13h46.2c33.6,0,60.9,27.3,60.9,60.9S-450,456.3-483.6,456.3z"/>
</g>
<g>
	<path class="st8" d="M-878.2,563.7v46.2c0,33.6-27.3,60.9-60.9,60.9c-33.6,0-60.9-27.3-60.9-60.9v-46.2c0-7.2,5.8-13,13-13
		s13,5.8,13,13v46.2c0,19.2,15.7,34.9,34.9,34.9c19.2,0,34.9-15.7,34.9-34.9v-46.2c0-7.2,5.8-13,13-13S-878.2,556.5-878.2,563.7z"/>
	<path class="st8" d="M-830.3,564.6v46.2c0,7.2-5.8,13-13,13s-13-5.8-13-13v-46.2c0-19.2-15.7-34.9-34.9-34.9
		c-19.2,0-34.9,15.7-34.9,34.9v46.2c0,7.2-5.8,13-13,13s-13-5.8-13-13v-46.2c0-33.6,27.3-60.9,60.9-60.9
		C-857.6,503.7-830.3,531-830.3,564.6z"/>
</g>
<g>
	<path class="st8" d="M-134.4,610.8l0-46.2c0-33.6,27.3-60.9,60.9-60.9s60.9,27.3,60.9,60.9l0,46.2c0,7.2-5.8,13-13,13
		s-13-5.8-13-13l0-46.2c0-19.2-15.7-34.9-34.9-34.9s-34.9,15.7-34.9,34.9l0,46.2c0,7.2-5.8,13-13,13S-134.4,618-134.4,610.8z"/>
	<path class="st8" d="M-182.3,609.9l0-46.2c0-7.2,5.8-13,13-13s13,5.8,13,13l0,46.2c0,19.2,15.7,34.9,34.9,34.9s34.9-15.7,34.9-34.9
		l0-46.2c0-7.2,5.8-13,13-13s13,5.8,13,13l0,46.2c0,33.6-27.3,60.9-60.9,60.9S-182.3,643.5-182.3,609.9z"/>
</g>
<g>
	<path class="st8" d="M-574.2,840h-46.2c-33.6,0-60.9-27.3-60.9-60.9c0-33.6,27.3-60.9,60.9-60.9h46.2c7.2,0,13,5.8,13,13
		s-5.8,13-13,13h-46.2c-19.2,0-34.9,15.7-34.9,34.9c0,19.2,15.7,34.9,34.9,34.9h46.2c7.2,0,13,5.8,13,13S-567,840-574.2,840z"/>
	<path class="st8" d="M-575.1,887.9h-46.2c-7.2,0-13-5.8-13-13s5.8-13,13-13h46.2c19.2,0,34.9-15.7,34.9-34.9
		c0-19.2-15.7-34.9-34.9-34.9h-46.2c-7.2,0-13-5.8-13-13s5.8-13,13-13h46.2c33.6,0,60.9,27.3,60.9,60.9
		C-514.2,860.6-541.5,887.9-575.1,887.9z"/>
</g>
<line class="st10" x1="-856.3" y1="321.6" x2="-856.3" y2="852.9"/>
<line class="st10" x1="-155.8" y1="321.6" x2="-155.8" y2="852.9"/>
<line class="st10" x1="-830.3" y1="321.6" x2="-830.3" y2="852.9"/>
<line class="st10" x1="-182.3" y1="321.6" x2="-182.3" y2="852.9"/>
<line class="st10" x1="-964.9" y1="430.3" x2="-47.7" y2="430.3"/>
<line class="st10" x1="-964.9" y1="456.3" x2="-47.7" y2="456.3"/>
<line class="st10" x1="-964.9" y1="718.2" x2="-47.7" y2="718.2"/>
<line class="st10" x1="-964.9" y1="744.2" x2="-47.7" y2="744.2"/>
<g>
	<path class="st4" d="M230.7,921h-46.2c-33.6,0-60.9-27.3-60.9-60.9c0-33.6,27.3-60.9,60.9-60.9h46.2c7.2,0,13,5.8,13,13
		s-5.8,13-13,13h-46.2c-19.2,0-34.9,15.7-34.9,34.9c0,19.2,15.7,34.9,34.9,34.9h46.2c7.2,0,13,5.8,13,13S237.9,921,230.7,921z"/>
	<path class="st4" d="M253.7,968.9h-46.2c-7.2,0-13-5.8-13-13s5.8-13,13-13h46.2c19.2,0,34.9-15.7,34.9-34.9
		c0-19.2-15.7-34.9-34.9-34.9h-46.2c-7.2,0-13-5.8-13-13s5.8-13,13-13h46.2c33.6,0,60.9,27.3,60.9,60.9
		C314.6,941.6,287.3,968.9,253.7,968.9z"/>
</g>
<g>
	<path class="st11" d="M594.4,928.6h-46.2c-33.6,0-60.9-27.3-60.9-60.9c0-33.6,27.3-60.9,60.9-60.9h46.2c7.2,0,13,5.8,13,13
		s-5.8,13-13,13h-46.2c-19.2,0-34.9,15.7-34.9,34.9c0,19.2,15.7,34.9,34.9,34.9h46.2c7.2,0,13,5.8,13,13S601.6,928.6,594.4,928.6z"
		/>
	<path class="st11" d="M593.5,976.5h-46.2c-7.2,0-13-5.8-13-13s5.8-13,13-13h46.2c19.2,0,34.9-15.7,34.9-34.9
		c0-19.2-15.7-34.9-34.9-34.9h-46.2c-7.2,0-13-5.8-13-13s5.8-13,13-13h46.2c33.6,0,60.9,27.3,60.9,60.9
		C654.4,949.2,627.1,976.5,593.5,976.5z"/>
</g>
<g>
	<g>
		
			<image style="overflow:visible;" width="185" height="187" xlink:href="7791E5DDC5D661F4.png"  transform="matrix(1 0 0 1 -689 -23)">
		</image>
	</g>
	<g>
		
			<image style="overflow:visible;" width="185" height="187" xlink:href="7791E5DDC5D661F1.png"  transform="matrix(1 0 0 1 -642 25)">
		</image>
	</g>
	<g>
		
			<image style="overflow:visible;" width="139" height="221" xlink:href="7791E5DDC5D661F2.png"  transform="matrix(1 0 0 1 -548 73)">
		</image>
	</g>
	<g>
		
			<image style="overflow:visible;" width="206" height="235" xlink:href="7791E5DDC5D661F3.png"  transform="matrix(1 0 0 1 -298 -23)">
		</image>
	</g>
	<g>
		
			<image style="overflow:visible;" width="239" height="202" xlink:href="7791E5DDC5D661FD.png"  transform="matrix(1 0 0 1 -446 81)">
		</image>
	</g>
	<g>
		
			<image style="overflow:visible;" width="210" height="180" xlink:href="7791E5DDC5D661FF.png"  transform="matrix(1 0 0 1 -499 14)">
		</image>
	</g>
	<g>
		
			<image style="overflow:visible;" width="160" height="141" xlink:href="7791E5DDC5D661FE.png"  transform="matrix(1 0 0 1 -252 23)">
		</image>
	</g>
	<g>
		
			<image style="overflow:visible;" width="186" height="139" xlink:href="7791E5DDC5D661F0.png"  transform="matrix(1 0 0 1 -546 -23)">
		</image>
	</g>
	<g>
		
			<image style="overflow:visible;" width="157" height="128" xlink:href="7791E5DDC5D661EC.png"  transform="matrix(1 0 0 1 -400 -23)">
		</image>
	</g>
	<g>
		
			<image style="overflow:visible;" width="142" height="150" xlink:href="4816390D97FC1F10.png"  transform="matrix(1 0 0 1 -364 14)">
		</image>
	</g>
	<g>
		
			<image style="overflow:visible;" width="141" height="186" xlink:href="4816390D97FC1F11.png"  transform="matrix(1 0 0 1 -140 -23)">
		</image>
	</g>
	<g>
		
			<image style="overflow:visible;" width="91" height="139" xlink:href="4816390D97FC1F12.png"  transform="matrix(1 0 0 1 -499 25)">
		</image>
	</g>
</g>
<path class="st12" d="M807.9,45.5h-46.2c-26.5,0-47.9,21.4-47.9,47.9s21.4,47.9,47.9,47.9h46.2"/>
<path class="st12" d="M760.8,93.4H807c26.5,0,47.9,21.4,47.9,47.9s-21.4,47.9-47.9,47.9h-46.2"/>
<path class="st12" d="M903,271.9v-52.5c-2.3-0.2-2.8-0.5-5.2-1c-4.1-0.8-8.1-2.1-12.1-4c-3.9-1.8-7.8-4.1-11.3-6.9
	c-3.8-2.9-7.2-6.5-10.1-10.6s-5.2-8.9-6.9-14.1c-1.7-5.3-2.5-11.2-2.5-17.5v-24"/>
<path class="st12" d="M956.2,260.3v-40.4c2.4-0.2,2.8-0.5,5.3-1c4.1-0.8,8.1-2.2,12.1-4c3.9-1.8,7.7-4.1,11.2-6.8
	c3.9-3,7.3-6.6,10.2-10.7c2.8-4.1,5.1-8.8,6.8-14c1.7-5.3,2.5-9.3,2.5-12.6"/>
<path class="st12" d="M903.9,171.7H949c1.5-0.3,3-0.6,4.5-0.9c0.6-0.1,1.1-0.4,1.6-0.7c0-0.1,0.3-0.3,0.5-0.8l0,0
	c0,0,0.4-0.9,0.4-3.4v-43.3"/>
<path class="st12" d="M1192.3,189.2h-45.1c-2.8,0-5.8-0.3-8.9-1c-3.1-0.6-6.3-1.7-9.4-3c-3.1-1.4-6.1-3.2-9-5.4
	c-3-2.3-5.7-5.2-8-8.4c-2.3-3.3-4.1-7-5.5-11.2c-1.3-4.1-2-8.8-2-13.8V88.2c0-2.8,0.3-5.8,1-8.9c0.6-3.2,1.7-6.3,3-9.4
	c1.4-3.2,3.2-6.2,5.5-9.1c2.4-3,5.2-5.7,8.4-7.9c3.3-2.3,7-4.1,11.1-5.4s8.8-2,13.8-2h72.6"/>
<path class="st12" d="M1104.5,149.9v65.4c0,3.4-0.7,6.6-2,9.7c-1.2,2.9-3,5.4-5.1,7.5c-2.1,2.1-4.8,3.9-7.7,5.2
	c-3,1.2-6.1,1.9-9.4,1.9c-2.9,0-5.8-0.5-8.6-1.6c-3.3-1.2-6.2-3.1-8.7-5.7l-58.7-61.3"/>
<path class="st12" d="M956,121.7v-14.1c0-5.1,1.5-10,4.2-14.1c2.6-3.9,6.1-6.9,10.2-8.9l0.3-0.1l0.3-0.1c3-1.2,6-1.9,9.2-1.9
	c1.5,0,3.1,0.2,4.7,0.5c4.8,1,9.2,3.4,12.6,7.1l25.2,29.2"/>
<polyline class="st12" points="1220,141.4 1150.6,141.4 1150.6,91.6 1191.2,91.3 "/>
<path class="st12" d="M856.1,45.5c0,26.5,21.4,47.9,47.9,47.9s47.9-21.4,47.9-47.9"/>
<path class="st12" d="M1002.6,45.5h47.5c10.2,0,18.5,8.3,18.5,18.5s-8.3,18.5-18.5,18.5h-11.5"/>
<path class="st12" d="M1044.8,141.3l15.4,0.1c16.3,0,29.5-13.2,29.5-29.5s-13.2-29.5-29.5-29.5h-21.5"/>
<path class="st12" d="M1262.7,45.5h24.3c13.9,0,25.2,11.3,25.2,25.2c0,13.9-11.3,25.2-25.2,25.2h-24.3l46.4,45.1"/>
<line class="st12" x1="903.9" y1="93.4" x2="903.9" y2="141.3"/>
</svg>
