<?xml version="1.0" encoding="utf-8"?>
<!-- Generator: Adobe Illustrator 28.2.0, SVG Export Plug-In . SVG Version: 6.00 Build 0)  -->
<svg version="1.1" id="Layer_1" xmlns="http://www.w3.org/2000/svg" xmlns:xlink="http://www.w3.org/1999/xlink" x="0px" y="0px"
	 viewBox="0 0 648 271.4" style="enable-background:new 0 0 648 271.4;" xml:space="preserve">
<style type="text/css">
	.st0{fill:none;stroke:#FFFFFF;stroke-width:26;stroke-linecap:round;stroke-linejoin:round;}
	.st1{fill:none;stroke:#231F20;stroke-width:26;stroke-linecap:round;stroke-linejoin:round;}
</style>
<path class="st0" d="M118.9,22.5H72.7c-26.5,0-47.9,21.4-47.9,47.9s21.4,47.9,47.9,47.9h46.2"/>
<path class="st1" d="M71.8,70.4H118c26.5,0,47.9,21.4,47.9,47.9s-21.4,47.9-47.9,47.9H71.8"/>
<path class="st1" d="M214,248.9v-52.4c-2.3-0.2-2.8-0.5-5.2-1c-4.1-0.8-8.1-2.1-12.1-4c-3.9-1.8-7.8-4.1-11.3-6.9
	c-3.8-2.9-7.2-6.5-10.1-10.6c-2.9-4.1-5.2-8.9-6.9-14.1c-1.7-5.3-2.5-11.2-2.5-17.5v-24"/>
<path class="st1" d="M267.2,237.3v-40.4c2.4-0.2,2.8-0.5,5.3-1c4.1-0.8,8.1-2.2,12.1-4c3.9-1.8,7.7-4.1,11.2-6.8
	c3.9-3,7.3-6.6,10.2-10.7c2.8-4.1,5.1-8.8,6.8-14c1.7-5.3,2.5-9.3,2.5-12.6"/>
<path class="st1" d="M214.9,118.3v24.5c0,1.2,0.2,2.3,0.5,3c0.3,0.9,0.7,1.3,0.9,1.5c0.1,0.1,0.5,0.5,1.4,0.8c0.9,0.3,2,0.5,3.4,0.5
	h39c1.5-0.3,3-0.6,4.5-0.9c0.6-0.1,1.1-0.4,1.6-0.7c0-0.1,0.3-0.3,0.5-0.8l0,0c0,0,0.4-0.9,0.4-3.4V99.5"/>
<path class="st1" d="M503.3,166.2h-45.1c-2.8,0-5.8-0.3-8.9-1c-3.1-0.6-6.3-1.7-9.4-3c-3.1-1.4-6.1-3.2-9-5.4c-3-2.3-5.7-5.2-8-8.4
	c-2.3-3.3-4.1-7-5.5-11.2c-1.3-4.1-2-8.8-2-13.8V65.3c0-2.8,0.3-5.8,1-8.9c0.6-3.2,1.7-6.3,3-9.3c1.4-3.2,3.2-6.2,5.5-9
	c2.4-3,5.2-5.7,8.4-7.9c3.3-2.3,7-4.1,11.1-5.5c4.1-1.3,8.8-2,13.8-2h72.6"/>
<path class="st1" d="M415.5,126.9v65.4c0,3.4-0.7,6.6-2,9.7c-1.2,2.9-3,5.4-5.1,7.5s-4.8,3.9-7.7,5.2c-3,1.2-6.1,1.9-9.4,1.9
	c-2.9,0-5.8-0.5-8.6-1.6c-3.3-1.2-6.2-3.1-8.7-5.7l-58.7-61.3"/>
<path class="st1" d="M267,98.7V84.6c0-5.1,1.5-10,4.2-14.1c2.6-3.9,6.1-6.9,10.2-8.9l0.3-0.1l0.3-0.1c3-1.2,6-1.9,9.2-1.9
	c1.5,0,3.1,0.2,4.7,0.5c4.8,1,9.2,3.4,12.6,7.1l47.3,51.3"/>
<polyline class="st0" points="531,118.4 461.6,118.4 461.6,68.6 502.2,68.3 "/>
<path class="st0" d="M167.1,22.5c0,26.5,21.4,47.9,47.9,47.9s47.9-21.4,47.9-47.9"/>
<path class="st0" d="M313.6,22.5h47.5c10.2,0,18.5,8.3,18.5,18.5s-8.3,18.5-18.5,18.5h-11.5"/>
<path class="st0" d="M355.8,118.3l15.4,0.1c16.3,0,29.5-13.2,29.5-29.5s-13.2-29.5-29.5-29.5h-21.5"/>
<path class="st0" d="M573.7,22.5H598c13.9,0,25.2,11.3,25.2,25.2S612,72.9,598,72.9h-24.3l46.4,45.1"/>
<line class="st0" x1="214.9" y1="70.4" x2="214.9" y2="118.3"/>
</svg>
