<?xml version="1.0" encoding="UTF-8"?><svg id="Layer_1" xmlns="http://www.w3.org/2000/svg" viewBox="0 0 648 271.4"><defs><style>.cls-1{fill:none;stroke:#e7f5f7;stroke-linecap:round;stroke-linejoin:round;stroke-width:26px;}</style></defs><path class="cls-1" d="M118.9,22.5h-46.2c-26.5,0-47.9,21.4-47.9,47.9s21.4,47.9,47.9,47.9h46.2"/><path class="cls-1" d="M71.8,70.4h46.2c26.5,0,47.9,21.4,47.9,47.9s-21.4,47.9-47.9,47.9h-46.2"/><path class="cls-1" d="M214,248.9v-52.5c-2.3-.2-2.8-.5-5.2-1-4.1-.8-8.1-2.1-12.1-4-3.9-1.8-7.8-4.1-11.3-6.9-3.8-2.9-7.2-6.5-10.1-10.6s-5.2-8.9-6.9-14.1c-1.7-5.3-2.5-11.2-2.5-17.5v-24"/><path class="cls-1" d="M267.2,237.3v-40.4c2.4-.2,2.8-.5,5.3-1,4.1-.8,8.1-2.2,12.1-4,3.9-1.8,7.7-4.1,11.2-6.8,3.9-3,7.3-6.6,10.2-10.7,2.8-4.1,5.1-8.8,6.8-14,1.7-5.3,2.5-9.3,2.5-12.6"/><path class="cls-1" d="M214.9,148.7h45.1c1.5-.3,3-.6,4.5-.9.6-.1,1.1-.4,1.6-.7,0-.1.3-.3.5-.8h0s.4-.9.4-3.4v-43.3"/><path class="cls-1" d="M503.3,166.2h-45.1c-2.8,0-5.8-.3-8.9-1-3.1-.6-6.3-1.7-9.4-3-3.1-1.4-6.1-3.2-9-5.4-3-2.3-5.7-5.2-8-8.4-2.3-3.3-4.1-7-5.5-11.2-1.3-4.1-2-8.8-2-13.8v-58.2c0-2.8.3-5.8,1-8.9.6-3.2,1.7-6.3,3-9.4,1.4-3.2,3.2-6.2,5.5-9.1,2.4-3,5.2-5.7,8.4-7.9,3.3-2.3,7-4.1,11.1-5.4s8.8-2,13.8-2h72.6"/><path class="cls-1" d="M415.5,126.9v65.4c0,3.4-.7,6.6-2,9.7-1.2,2.9-3,5.4-5.1,7.5s-4.8,3.9-7.7,5.2c-3,1.2-6.1,1.9-9.4,1.9-2.9,0-5.8-.5-8.6-1.6-3.3-1.2-6.2-3.1-8.7-5.7l-58.7-61.3"/><path class="cls-1" d="M267,98.7v-14.1c0-5.1,1.5-10,4.2-14.1,2.6-3.9,6.1-6.9,10.2-8.9l.3-.1.3-.1c3-1.2,6-1.9,9.2-1.9,1.5,0,3.1.2,4.7.5,4.8,1,9.2,3.4,12.6,7.1l25.2,29.2"/><polyline class="cls-1" points="531 118.4 461.6 118.4 461.6 68.6 502.2 68.3"/><path class="cls-1" d="M167.1,22.5c0,26.5,21.4,47.9,47.9,47.9s47.9-21.4,47.9-47.9"/><path class="cls-1" d="M313.6,22.5h47.5c10.2,0,18.5,8.3,18.5,18.5s-8.3,18.5-18.5,18.5h-11.5"/><path class="cls-1" d="M355.8,118.3l15.4.1c16.3,0,29.5-13.2,29.5-29.5s-13.2-29.5-29.5-29.5h-21.5"/><path class="cls-1" d="M573.7,22.5h24.3c13.9,0,25.2,11.3,25.2,25.2s-11.3,25.2-25.2,25.2h-24.3l46.4,45.1"/><line class="cls-1" x1="214.9" y1="70.4" x2="214.9" y2="118.3"/></svg>