<?xml version="1.0" encoding="UTF-8"?><svg id="Layer_1" xmlns="http://www.w3.org/2000/svg" viewBox="0 0 917.28 531.36"><defs><style>.cls-1{fill:none;stroke:#49ffff;stroke-miterlimit:10;}.cls-2{fill:#42f2f7;}.cls-2,.cls-3,.cls-4,.cls-5{stroke-width:0px;}.cls-3{fill:#3d4f4c;}.cls-4{fill:#2a3533;}.cls-5{fill:#231f20;}</style></defs><rect class="cls-4" x="108.64" y="108.76" width="700.47" height="313.78"/><path class="cls-2" d="M245.79,261.17h-47.95c-34.87,0-63.2-28.33-63.2-63.2s28.33-63.2,63.2-63.2h47.95c7.47,0,13.49,6.02,13.49,13.49s-6.02,13.49-13.49,13.49h-47.95c-19.93,0-36.22,16.29-36.22,36.22s16.29,36.22,36.22,36.22h47.95c7.47,0,13.49,6.02,13.49,13.49s-6.02,13.49-13.49,13.49Z"/><path class="cls-2" d="M244.85,310.88h-47.95c-7.47,0-13.49-6.02-13.49-13.49s6.02-13.49,13.49-13.49h47.95c19.93,0,36.22-16.29,36.22-36.22s-16.29-36.22-36.22-36.22h-47.95c-7.47,0-13.49-6.02-13.49-13.49s6.02-13.49,13.49-13.49h47.95c34.87,0,63.2,28.33,63.2,63.2s-28.33,63.2-63.2,63.2Z"/><path class="cls-2" d="M344.48,396.6c-7.47,0-13.49-6.02-13.49-13.49v-43.59c-3.42-.93-6.75-2.28-10.07-3.74-4.98-2.28-9.86-5.29-14.43-8.72-4.98-3.84-9.44-8.51-13.18-13.91-3.74-5.4-6.75-11.52-8.93-18.27-2.18-6.75-3.32-14.32-3.32-22.31v-24.91c0-7.47,6.02-13.49,13.49-13.49s13.49,6.02,13.49,13.49v24.91c0,5.19.62,9.96,1.97,14.01,1.35,4.15,3.11,7.89,5.29,11,2.18,3.11,4.77,5.92,7.68,8.09,2.91,2.28,5.92,4.15,9.13,5.5,3.11,1.45,6.33,2.49,9.55,3.11,1.25.21,2.18.52,2.8.62q.62.21,1.04.21c7.06.52,12.45,6.43,12.45,13.49v54.38c0,7.58-6.02,13.6-13.49,13.6Z"/><path class="cls-2" d="M399.69,384.66c-7.47,0-13.49-6.02-13.49-13.49v-41.93c0-7.06,5.4-12.87,12.45-13.49q.42,0,1.14-.21c.73-.21,1.56-.42,2.8-.62,3.22-.62,6.43-1.66,9.55-3.11s6.23-3.32,9.13-5.5c2.91-2.28,5.5-4.98,7.68-8.09s3.94-6.85,5.29-11c1.66-5.19,1.97-7.68,1.97-8.93,0-7.47,6.02-13.49,13.49-13.49s13.49,6.02,13.49,13.49c0,4.77-1.04,10.07-3.32,17.12-2.18,6.64-5.09,12.76-8.82,18.06-3.74,5.5-8.3,10.27-13.39,14.22-4.46,3.42-9.24,6.33-14.22,8.61-3.32,1.56-6.75,2.8-10.17,3.84v31.13c-.1,7.37-6.12,13.39-13.6,13.39Z"/><path class="cls-2" d="M392.32,292.71h-46.8c-7.47,0-13.49-6.02-13.49-13.49s6.02-13.49,13.49-13.49h40.58v-37.57c0-7.47,6.02-13.49,13.49-13.49s13.49,6.02,13.49,13.49v44.94c0,3.42-.42,6.23-1.35,8.51-.21.42-.31.83-.52,1.25-.83,1.66-1.87,3.01-3.01,4.25-.52.52-1.14,1.04-1.76,1.45-1.87,1.25-3.84,2.18-6.12,2.8h-.1c-1.87.42-3.74.83-5.5,1.14-.83.1-1.66.21-2.39.21ZM385.99,273.72h0Z"/><path class="cls-2" d="M644.72,310.88h-46.8c-3.84,0-7.89-.42-12.04-1.25-4.15-.83-8.41-2.18-12.45-4.05-4.25-1.87-8.3-4.36-12.04-7.26-4.25-3.22-7.99-7.16-11.1-11.73-3.22-4.57-5.71-9.65-7.47-15.26-1.76-5.6-2.7-11.83-2.7-18.37v-60.3c0-3.84.42-7.89,1.25-12.04.83-4.15,2.18-8.3,4.05-12.45,1.97-4.36,4.46-8.41,7.37-12.25,3.22-4.15,7.16-7.89,11.62-11,4.46-3.11,9.65-5.71,15.15-7.47,5.6-1.76,11.83-2.7,18.37-2.7h75.34c7.47,0,13.49,6.02,13.49,13.49s-6.02,13.49-13.49,13.49h-75.34c-3.74,0-7.16.52-10.17,1.45-2.91.93-5.6,2.28-7.89,3.84-2.28,1.56-4.25,3.42-5.81,5.5-1.66,2.08-3.01,4.25-3.94,6.54-1.04,2.28-1.76,4.57-2.18,6.95-.52,2.39-.73,4.57-.73,6.54v60.4c0,3.74.52,7.16,1.45,10.17.93,3.01,2.28,5.71,3.84,7.99s3.42,4.25,5.5,5.81c2.08,1.56,4.25,2.91,6.54,3.94s4.67,1.76,6.95,2.28c2.39.52,4.57.73,6.54.73h46.8c7.47,0,13.49,6.02,13.49,13.49s-6.12,13.49-13.6,13.49Z"/><path class="cls-2" d="M528.48,363.08c-4.57,0-9.13-.83-13.6-2.49-5.4-1.97-10.07-5.09-14.11-9.34l-60.92-63.62c-5.19-5.4-4.98-13.91.42-19.1,5.4-5.19,13.91-4.98,19.1.42l60.92,63.62c1.14,1.25,2.39,2.08,3.84,2.59,3.11,1.14,6.12,1.04,8.82-.1,1.35-.52,2.59-1.45,3.63-2.49s1.87-2.28,2.49-3.63c.62-1.45.93-3.01.93-4.67v-67.87c0-7.47,6.02-13.49,13.49-13.49s13.49,6.02,13.49,13.49v67.87c0,5.4-1.04,10.59-3.22,15.46-1.97,4.46-4.67,8.51-8.09,11.93-3.53,3.42-7.78,6.33-12.35,8.2-4.67,2.18-9.65,3.22-14.84,3.22Z"/><path class="cls-2" d="M399.49,240.82c-7.47,0-13.49-6.02-13.49-13.49v-14.63c0-7.99,2.28-15.57,6.64-22.11,4.05-6.12,9.44-10.79,15.98-13.91,0,0,.1,0,.1-.1l.31-.1c.1-.1.21-.1.42-.21l.31-.1c7.06-3.01,14.74-3.74,22.31-2.28,7.78,1.56,14.84,5.5,20.34,11.42.1.1.21.21.31.42l26.15,30.3c4.88,5.6,4.25,14.11-1.35,18.99-5.6,4.88-14.11,4.25-18.99-1.35l-25.94-29.99c-1.66-1.66-3.53-2.8-5.71-3.22-2.28-.52-4.36-.21-6.43.62h0c-2.08,1.04-3.74,2.49-5.09,4.46-1.35,2.08-2.18,4.57-2.18,7.16v14.63c-.21,7.47-6.23,13.49-13.7,13.49Z"/><path class="cls-2" d="M673.46,261.27h-72.02c-7.47,0-13.49-6.02-13.49-13.49v-51.68c0-7.37,6.02-13.39,13.39-13.49l42.13-.31h.1c7.37,0,13.39,6.02,13.49,13.39.1,7.47-5.92,13.49-13.39,13.6l-28.75.21v24.8h58.53c7.47,0,13.49,6.02,13.49,13.49,0,7.47-6.02,13.49-13.49,13.49Z"/><path class="cls-2" d="M345.42,211.46c-34.87,0-63.2-28.33-63.2-63.2,0-7.47,6.02-13.49,13.49-13.49s13.49,6.02,13.49,13.49c0,19.93,16.29,36.22,36.22,36.22s36.22-16.29,36.22-36.22c0-7.47,6.02-13.49,13.49-13.49s13.49,6.02,13.49,13.49c0,34.87-28.33,63.2-63.2,63.2Z"/><path class="cls-2" d="M497.14,200.14h-11.93c-7.47,0-13.49-6.02-13.49-13.49s6.02-13.49,13.49-13.49h11.93c3.11,0,5.71-2.49,5.71-5.71s-2.49-5.71-5.71-5.71h-49.3c-7.47,0-13.49-6.02-13.49-13.49s6.02-13.49,13.49-13.49h49.3c17.95,0,32.69,14.63,32.69,32.69s-14.74,32.69-32.69,32.69Z"/><path class="cls-2" d="M507.52,261.37h-.1l-15.98-.1c-7.47-.1-13.49-6.12-13.39-13.6.1-7.37,6.12-13.39,13.49-13.39h.1l15.88.1c9.44,0,17.12-7.68,17.12-17.12s-7.68-17.12-17.12-17.12h-22.31c-7.47,0-13.49-6.02-13.49-13.49s6.02-13.49,13.49-13.49h22.31c24.28,0,44.11,19.82,44.11,44.11s-19.72,44.11-44.11,44.11Z"/><path class="cls-2" d="M765.93,260.96c-3.42,0-6.75-1.25-9.44-3.84l-48.15-46.8c-3.94-3.84-5.19-9.65-3.11-14.74,2.08-5.09,7.06-8.41,12.45-8.41h25.32c6.95,0,12.66-5.71,12.66-12.66s-5.6-12.76-12.66-12.76h-25.22c-7.47,0-13.49-6.02-13.49-13.49s6.02-13.49,13.49-13.49h25.22c21.9,0,39.64,17.75,39.64,39.64,0,19.41-14.01,35.49-32.38,39.02l25.01,24.39c5.29,5.19,5.5,13.7.31,19.1-2.59,2.7-6.12,4.05-9.65,4.05Z"/><path class="cls-2" d="M345.42,261.17c-7.47,0-13.49-6.02-13.49-13.49v-49.71c0-7.47,6.02-13.49,13.49-13.49s13.49,6.02,13.49,13.49v49.71c0,7.47-6.02,13.49-13.49,13.49Z"/><rect class="cls-3" x="108.64" y="108.76" width="700.47" height="26"/><rect class="cls-3" x="-35.25" y="252.65" width="313.78" height="26" transform="translate(-144.01 387.29) rotate(-90)"/><rect class="cls-3" x="638.48" y="252.92" width="314.43" height="26.1" transform="translate(529.72 1061.67) rotate(-90)"/><rect class="cls-3" x="108.64" y="396.6" width="700.47" height="26"/><path class="cls-5" d="M482.19,86.86h-46.2c-33.6,0-60.9-27.3-60.9-60.9s27.3-60.9,60.9-60.9h46.2c7.2,0,13,5.8,13,13s-5.8,13-13,13h-46.2c-19.2,0-34.9,15.7-34.9,34.9s15.7,34.9,34.9,34.9h46.2c7.2,0,13,5.8,13,13s-5.8,13-13,13Z"/><path class="cls-5" d="M481.29,134.76h-46.2c-7.2,0-13-5.8-13-13s5.8-13,13-13h46.2c19.2,0,34.9-15.7,34.9-34.9s-15.7-34.9-34.9-34.9h-46.2c-7.2,0-13-5.8-13-13s5.8-13,13-13h46.2c33.6,0,60.9,27.3,60.9,60.9s-27.3,60.9-60.9,60.9Z"/><path class="cls-5" d="M86.74,242.13v46.2c0,33.6-27.3,60.9-60.9,60.9s-60.9-27.3-60.9-60.9v-46.2c0-7.2,5.8-13,13-13s13,5.8,13,13v46.2c0,19.2,15.7,34.9,34.9,34.9s34.9-15.7,34.9-34.9v-46.2c0-7.2,5.8-13,13-13s13,5.8,13,13Z"/><path class="cls-5" d="M134.64,243.03v46.2c0,7.2-5.8,13-13,13s-13-5.8-13-13v-46.2c0-19.2-15.7-34.9-34.9-34.9s-34.9,15.7-34.9,34.9v46.2c0,7.2-5.8,13-13,13s-13-5.8-13-13v-46.2c0-33.6,27.3-60.9,60.9-60.9s60.9,27.3,60.9,60.9Z"/><path class="cls-5" d="M830.54,289.23v-46.2c0-33.6,27.3-60.9,60.9-60.9,33.6,0,60.9,27.3,60.9,60.9v46.2c0,7.2-5.8,13-13,13-7.2,0-13-5.8-13-13v-46.2c0-19.2-15.7-34.9-34.9-34.9s-34.9,15.7-34.9,34.9v46.2c0,7.2-5.8,13-13,13-7.2,0-13-5.8-13-13Z"/><path class="cls-5" d="M782.64,288.33v-46.2c0-7.2,5.8-13,13-13,7.2,0,13,5.8,13,13v46.2c0,19.2,15.7,34.9,34.9,34.9,19.2,0,34.9-15.7,34.9-34.9v-46.2c0-7.2,5.8-13,13-13s13,5.8,13,13v46.2c0,33.6-27.3,60.9-60.9,60.9s-60.9-27.3-60.9-60.9Z"/><path class="cls-5" d="M390.68,518.4h-46.2c-33.6,0-60.9-27.3-60.9-60.9s27.3-60.9,60.9-60.9h46.2c7.2,0,13,5.8,13,13s-5.8,13-13,13h-46.2c-19.2,0-34.9,15.7-34.9,34.9s15.7,34.9,34.9,34.9h46.2c7.2,0,13,5.8,13,13s-5.8,13-13,13Z"/><path class="cls-5" d="M389.78,566.3h-46.2c-7.2,0-13-5.8-13-13s5.8-13,13-13h46.2c19.2,0,34.9-15.7,34.9-34.9s-15.7-34.9-34.9-34.9h-46.2c-7.2,0-13-5.8-13-13s5.8-13,13-13h46.2c33.6,0,60.9,27.3,60.9,60.9s-27.3,60.9-60.9,60.9Z"/><line class="cls-1" x1="108.64" x2="108.64" y2="531.36"/><line class="cls-1" x1="809.11" x2="809.11" y2="531.36"/><line class="cls-1" x1="134.64" y1="0" x2="134.64" y2="531.36"/><line class="cls-1" x1="782.64" y1="0" x2="782.64" y2="531.36"/><line class="cls-1" x1="0" y1="108.76" x2="917.28" y2="108.76"/><line class="cls-1" x1="0" y1="134.76" x2="917.28" y2="134.76"/><line class="cls-1" x1="0" y1="396.6" x2="917.28" y2="396.6"/><line class="cls-1" x1="0" y1="422.6" x2="917.28" y2="422.6"/></svg>