<?xml version="1.0" encoding="UTF-8"?><svg id="Layer_1" xmlns="http://www.w3.org/2000/svg" viewBox="0 0 216.25 231.7"><defs><style>.cls-1{fill:#42f2f7;}.cls-1,.cls-2{stroke-width:0px;}.cls-2{fill:#fff;}</style></defs><path class="cls-2" d="M130.96,146.5h-46.2c-33.6,0-60.9-27.3-60.9-60.9s27.3-60.9,60.9-60.9h46.2c7.2,0,13,5.8,13,13s-5.8,13-13,13h-46.2c-19.2,0-34.9,15.7-34.9,34.9s15.7,34.9,34.9,34.9h46.2c7.2,0,13,5.8,13,13s-5.8,13-13,13Z"/><path class="cls-1" d="M130.06,194.4h-46.2c-7.2,0-13-5.8-13-13s5.8-13,13-13h46.2c19.2,0,34.9-15.7,34.9-34.9s-15.7-34.9-34.9-34.9h-46.2c-7.2,0-13-5.8-13-13s5.8-13,13-13h46.2c33.6,0,60.9,27.3,60.9,60.9s-27.3,60.9-60.9,60.9Z"/></svg>