<?xml version="1.0" encoding="UTF-8"?><svg id="Layer_2" xmlns="http://www.w3.org/2000/svg" viewBox="0 0 648 271.39"><defs><style>.cls-1{fill:#42f2f7;}.cls-1,.cls-2{stroke-width:0px;}.cls-2{fill:#69aebb;}</style></defs><path class="cls-1" d="M118.88,131.32h-46.22c-33.57,0-60.89-27.32-60.89-60.89S39.09,9.54,72.66,9.54h46.22c7.18,0,13,5.82,13,13s-5.82,13-13,13h-46.22c-19.24,0-34.89,15.65-34.89,34.89s15.65,34.89,34.89,34.89h46.22c7.18,0,13,5.82,13,13s-5.82,13-13,13Z"/><path class="cls-1" d="M118.04,179.22h-46.22c-7.18,0-13-5.82-13-13s5.82-13,13-13h46.22c19.24,0,34.89-15.65,34.89-34.89s-15.65-34.89-34.89-34.89h-46.22c-7.18,0-13-5.82-13-13s5.82-13,13-13h46.22c33.57,0,60.89,27.32,60.89,60.89s-27.32,60.89-60.89,60.89Z"/><path class="cls-1" d="M214.01,261.85c-7.18,0-13-5.82-13-13v-41.98c-3.29-.95-6.54-2.16-9.72-3.61-4.84-2.21-9.52-5.06-13.87-8.44-4.81-3.72-9.1-8.24-12.73-13.43-3.63-5.17-6.52-11.1-8.6-17.59-2.1-6.55-3.16-13.77-3.16-21.46v-23.99c0-7.18,5.82-13,13-13s13,5.82,13,13v23.99c0,5,.65,9.55,1.92,13.54,1.28,4,3.01,7.57,5.13,10.6,2.13,3.04,4.6,5.66,7.37,7.8,2.79,2.17,5.73,3.96,8.76,5.35,3.04,1.39,6.14,2.42,9.24,3.04,1.23.25,2.08.47,2.71.63q.6.15.99.18c6.75.55,11.95,6.19,11.95,12.96v52.42c0,7.18-5.82,13-13,13Z"/><path class="cls-1" d="M267.19,250.32c-7.18,0-13-5.82-13-13v-40.41c0-6.78,5.2-12.42,11.96-12.96q.43-.03,1.07-.2c.71-.18,1.52-.38,2.66-.62,3.12-.63,6.21-1.65,9.21-3.04,3.02-1.4,5.96-3.19,8.75-5.33,2.82-2.17,5.31-4.8,7.41-7.83,2.1-3.03,3.81-6.59,5.09-10.56,1.59-4.95,1.92-7.39,1.92-8.57,0-7.18,5.82-13,13-13s13,5.82,13,13c0,4.6-.98,9.7-3.17,16.53-2.06,6.4-4.9,12.25-8.45,17.39-3.64,5.26-8,9.86-12.95,13.66-4.31,3.32-8.92,6.12-13.69,8.32-3.2,1.48-6.49,2.71-9.82,3.67v29.96c0,7.18-5.82,13-13,13Z"/><path class="cls-1" d="M260.07,161.68h-45.12c-7.18,0-13-5.82-13-13s5.82-13,13-13h39.11v-36.23c0-7.18,5.82-13,13-13s13,5.82,13,13v43.35c0,3.28-.43,6.04-1.29,8.19-.16.4-.34.79-.54,1.18-.82,1.59-1.8,2.95-2.9,4.05-.53.53-1.11,1.02-1.72,1.45-1.76,1.24-3.74,2.14-5.87,2.67-.04,0-.07.02-.11.03-1.83.44-3.61.81-5.3,1.11-.75.13-1.5.2-2.26.2ZM254.04,143.36h0Z"/><path class="cls-1" d="M503.34,179.16h-45.12c-3.72,0-7.61-.41-11.56-1.23-4.01-.81-8.05-2.11-11.98-3.85-4.08-1.81-7.99-4.15-11.64-6.95-4.07-3.13-7.68-6.92-10.73-11.26-3.07-4.36-5.5-9.32-7.21-14.73-1.72-5.42-2.6-11.37-2.6-17.69v-58.16c0-3.72.41-7.61,1.23-11.56.81-4,2.11-8.05,3.85-11.98,1.86-4.17,4.26-8.14,7.14-11.82,3.14-4.01,6.9-7.57,11.17-10.55,4.34-3.05,9.26-5.47,14.61-7.18,5.45-1.75,11.41-2.63,17.73-2.63h72.62c7.18,0,13,5.82,13,13s-5.82,13-13,13h-72.62c-3.62,0-6.91.47-9.79,1.39-2.85.91-5.41,2.16-7.62,3.71-2.18,1.52-4.07,3.31-5.64,5.31-1.58,2.01-2.86,4.13-3.84,6.32-.97,2.2-1.7,4.45-2.15,6.65-.47,2.26-.7,4.38-.7,6.34v58.16c0,3.64.46,6.94,1.38,9.82.91,2.89,2.16,5.46,3.7,7.65,1.54,2.2,3.33,4.08,5.31,5.61,2.01,1.55,4.14,2.82,6.32,3.79,2.2.98,4.45,1.7,6.66,2.15,2.26.47,4.38.7,6.34.7h45.12c7.18,0,13,5.82,13,13s-5.82,13-13,13Z"/><path class="cls-1" d="M391.31,229.46c-4.43,0-8.85-.8-13.12-2.37-5.16-1.89-9.74-4.91-13.6-8.98l-58.71-61.3c-4.97-5.19-4.79-13.42.4-18.38,5.19-4.97,13.42-4.79,18.38.4l58.74,61.34c1.13,1.19,2.35,2,3.75,2.52,2.98,1.1,5.88,1.01,8.55-.09,1.29-.54,2.54-1.37,3.54-2.37.98-.98,1.78-2.15,2.36-3.49.61-1.39.91-2.89.91-4.47v-65.36c0-7.18,5.82-13,13-13s13,5.82,13,13v65.36c0,5.19-1.04,10.2-3.08,14.87-1.89,4.33-4.53,8.22-7.85,11.52-3.36,3.34-7.46,6.08-11.87,7.94-4.62,1.91-9.44,2.87-14.39,2.87Z"/><path class="cls-1" d="M267.05,111.69c-7.18,0-13-5.82-13-13v-14.08c0-7.66,2.22-15.04,6.41-21.34,3.94-5.92,9.14-10.45,15.44-13.44.05-.02.09-.04.14-.06l.26-.12c.12-.06.24-.11.36-.16l.26-.11c6.84-2.89,14.22-3.65,21.48-2.19,7.48,1.49,14.26,5.3,19.58,11.02.11.12.21.23.32.35l25.2,29.16c4.69,5.43,4.1,13.64-1.34,18.34-5.43,4.7-13.64,4.1-18.34-1.34l-25.02-28.95c-1.57-1.64-3.42-2.68-5.5-3.09-2.24-.45-4.22-.22-6.24.64l-.05.02c-1.99.96-3.6,2.38-4.91,4.35-1.34,2.01-2.05,4.41-2.05,6.92v14.08c0,7.18-5.82,13-13,13Z"/><path class="cls-1" d="M531.01,131.42h-69.44c-7.18-.01-13-5.83-13-13.01v-49.78c0-7.14,5.76-12.94,12.9-13l40.64-.32h.1c7.13,0,12.94,5.75,13,12.9.06,7.18-5.72,13.05-12.9,13.1l-27.74.22v23.88h56.44c7.18,0,13,5.83,13,13.01,0,7.18-5.82,13-13,13Z"/><path class="cls-1" d="M214.95,83.43c-33.57,0-60.89-27.32-60.89-60.89,0-7.18,5.82-13,13-13s13,5.82,13,13c0,19.24,15.65,34.89,34.89,34.89s34.89-15.65,34.89-34.89c0-7.18,5.82-13,13-13s13,5.82,13,13c0,33.57-27.31,60.89-60.89,60.89Z"/><path class="cls-1" d="M361.09,72.46h-11.48c-7.18,0-13-5.82-13-13s5.82-13,13-13h11.48c3.01,0,5.46-2.45,5.46-5.46s-2.45-5.46-5.46-5.46h-47.53c-7.18,0-13-5.82-13-13s5.82-13,13-13h47.53c17.35,0,31.46,14.11,31.46,31.46s-14.11,31.46-31.46,31.46Z"/><path class="cls-1" d="M371.15,131.46h-.11l-15.37-.13c-7.18-.06-12.95-5.93-12.89-13.11.06-7.14,5.87-12.89,13-12.89h.11l15.31.13c9.08-.03,16.45-7.42,16.45-16.5s-7.4-16.5-16.5-16.5h-21.54c-7.18,0-13-5.82-13-13s5.82-13,13-13h21.54c23.43,0,42.5,19.07,42.5,42.5s-19.07,42.5-42.5,42.5Z"/><path class="cls-1" d="M620.1,131.07c-3.27,0-6.54-1.22-9.06-3.68l-46.39-45.13c-3.79-3.69-4.97-9.31-2.98-14.21,1.99-4.9,6.75-8.11,12.04-8.11h24.32c6.73,0,12.2-5.47,12.2-12.2s-5.47-12.2-12.2-12.2h-24.32c-7.18,0-13-5.82-13-13s5.82-13,13-13h24.32c21.06,0,38.2,17.14,38.2,38.2,0,18.67-13.46,34.25-31.18,37.55l24.11,23.46c5.15,5.01,5.26,13.24.25,18.38-2.55,2.62-5.93,3.93-9.32,3.93Z"/><path class="cls-1" d="M214.95,131.33c-7.18,0-13-5.82-13-13v-47.89c0-7.18,5.82-13,13-13s13,5.82,13,13v47.89c0,7.18-5.82,13-13,13Z"/><rect class="cls-2" y="22.04" width="648" height="1"/><rect class="cls-2" y="117.82" width="648" height="1"/><rect class="cls-2" x="324.64" y="58.96" width="323.36" height="1"/><rect class="cls-2" x="43.85" y="165.72" width="487.45" height="1"/><rect class="cls-2" x="530.35" y="0" width="1" height="144.57"/></svg>