<?xml version="1.0" encoding="UTF-8"?><svg id="Layer_3" xmlns="http://www.w3.org/2000/svg" viewBox="0 0 216 216"><defs><style>.cls-1{fill:#42f2f7;stroke-width:0px;}</style></defs><path class="cls-1" d="M131.53,144.94h-46.22c-33.57,0-60.89-27.32-60.89-60.89s27.32-60.89,60.89-60.89h46.22c7.18,0,13,5.82,13,13s-5.82,13-13,13h-46.22c-19.24,0-34.89,15.65-34.89,34.89s15.65,34.89,34.89,34.89h46.22c7.18,0,13,5.82,13,13s-5.82,13-13,13Z"/><path class="cls-1" d="M130.69,192.84h-46.22c-7.18,0-13-5.82-13-13s5.82-13,13-13h46.22c19.24,0,34.89-15.65,34.89-34.89s-15.65-34.89-34.89-34.89h-46.22c-7.18,0-13-5.82-13-13s5.82-13,13-13h46.22c33.57,0,60.89,27.32,60.89,60.89s-27.32,60.89-60.89,60.89Z"/></svg>