<?xml version="1.0" encoding="UTF-8"?><svg id="Layer_4" xmlns="http://www.w3.org/2000/svg" viewBox="0 0 648 431.64"><defs><style>.cls-1{fill:none;stroke:#42f2f7;stroke-linecap:round;stroke-linejoin:round;stroke-width:26px;}</style></defs><path class="cls-1" d="M118.88,24.02h-46.22c-26.45,0-47.89,21.44-47.89,47.89s21.44,47.89,47.89,47.89h46.22"/><polyline class="cls-1" points="531.01 119.9 461.57 119.89 461.57 70.11 502.21 69.79"/><path class="cls-1" d="M167.06,24.02c0,26.45,21.44,47.89,47.89,47.89s47.89-21.44,47.89-47.89"/><path class="cls-1" d="M313.56,24.02h47.53c10.19,0,18.46,8.26,18.46,18.46s-8.26,18.46-18.46,18.46h-11.48"/><path class="cls-1" d="M355.78,119.81l15.37.13c16.29,0,29.5-13.21,29.5-29.5s-13.21-29.5-29.5-29.5h-21.54"/><path class="cls-1" d="M573.71,24.02h24.32c13.92,0,25.2,11.28,25.2,25.2s-11.28,25.2-25.2,25.2h-24.32l46.39,45.13"/><line class="cls-1" x1="214.95" y1="71.92" x2="214.95" y2="119.81"/><path class="cls-1" d="M458.23,24.04h72.62"/><path class="cls-1" d="M71.82,227.54h46.22c26.45,0,47.89,21.44,47.89,47.89s-21.44,47.89-47.89,47.89h-46.22"/><path class="cls-1" d="M214.01,405.95v-52.42c-2.34-.19-2.76-.53-5.22-1.03-4.06-.82-8.13-2.15-12.07-3.96-3.94-1.8-7.75-4.12-11.31-6.89-3.8-2.94-7.19-6.52-10.06-10.62-2.88-4.11-5.19-8.85-6.87-14.1-1.69-5.28-2.54-11.17-2.54-17.5v-23.99"/><path class="cls-1" d="M267.19,394.42v-40.41c2.37-.19,2.81-.53,5.3-1.04,4.08-.82,8.14-2.16,12.07-3.98,3.88-1.79,7.66-4.09,11.22-6.83,3.88-2.98,7.3-6.59,10.17-10.74,2.82-4.08,5.1-8.78,6.77-13.97,1.69-5.26,2.55-9.27,2.55-12.55"/><path class="cls-1" d="M214.95,305.78h45.12c1.47-.26,2.98-.58,4.51-.95.6-.15,1.09-.37,1.56-.7.05-.05.27-.3.55-.84h0s.37-.93.37-3.39v-43.35"/><path class="cls-1" d="M503.34,323.26h-45.12c-2.83,0-5.83-.32-8.93-.96-3.15-.64-6.3-1.66-9.35-3.01-3.13-1.39-6.15-3.2-8.97-5.37-3.03-2.33-5.73-5.17-8.02-8.43-2.3-3.27-4.14-7.03-5.46-11.19-1.32-4.15-1.99-8.79-1.99-13.76v-58.16c0-2.82.32-5.83.96-8.93.64-3.15,1.66-6.3,3.01-9.35,1.41-3.17,3.25-6.21,5.48-9.05,2.35-3,5.17-5.67,8.4-7.93,3.26-2.29,7-4.13,11.12-5.45,4.15-1.33,8.78-2.01,13.76-2.01h72.62"/><path class="cls-1" d="M415.5,284v65.36c0,3.39-.67,6.64-1.99,9.66-1.24,2.85-2.96,5.38-5.11,7.52s-4.8,3.93-7.73,5.16c-2.97,1.23-6.11,1.86-9.36,1.86-2.9,0-5.81-.53-8.64-1.57-3.27-1.2-6.19-3.13-8.66-5.73l-58.74-61.34"/><path class="cls-1" d="M267.05,255.79v-14.08c0-5.08,1.46-9.97,4.23-14.13,2.63-3.95,6.06-6.94,10.2-8.91l.26-.12.26-.11c2.96-1.25,6.04-1.88,9.18-1.88,1.55,0,3.12.16,4.66.47,4.82.96,9.18,3.43,12.62,7.13l25.2,29.16"/><path class="cls-1" d="M118.88,179.64h-46.22c-26.45,0-47.89,21.44-47.89,47.89s21.44,47.89,47.89,47.89h46.22"/></svg>