<?xml version="1.0" encoding="UTF-8"?><svg id="Layer_3" xmlns="http://www.w3.org/2000/svg" viewBox="0 0 234.09 234.09"><defs><style>.cls-1{fill:#49ffff;}.cls-1,.cls-2,.cls-3,.cls-4{stroke-width:0px;}.cls-2{fill:#86adaf;}.cls-3{fill:#42f2f7;}.cls-4{fill:#231f20;}</style></defs><rect class="cls-3" x="33.46" y="32.2" width="167.16" height="169.68"/><path class="cls-2" d="M200.62,32.2v169.68H33.46V32.2h167.16M226.62,6.2H7.46v221.68h219.16V6.2h0Z"/><path class="cls-1" d="M227.12,228.38H6.96V5.7h220.16v222.68ZM7.96,227.38h218.16V6.7H7.96v220.68Z"/><path class="cls-4" d="M140.57,153.98h-46.22c-33.57,0-60.89-27.32-60.89-60.89s27.32-60.89,60.89-60.89h46.22c7.18,0,13,5.82,13,13s-5.82,13-13,13h-46.22c-19.24,0-34.89,15.65-34.89,34.89s15.65,34.89,34.89,34.89h46.22c7.18,0,13,5.82,13,13s-5.82,13-13,13Z"/><path class="cls-4" d="M139.73,201.88h-46.22c-7.18,0-13-5.82-13-13s5.82-13,13-13h46.22c19.24,0,34.89-15.65,34.89-34.89s-15.65-34.89-34.89-34.89h-46.22c-7.18,0-13-5.82-13-13s5.82-13,13-13h46.22c33.57,0,60.89,27.32,60.89,60.89s-27.32,60.89-60.89,60.89Z"/><rect class="cls-1" x="200.12" y="6.2" width="1" height="221.68"/><rect class="cls-1" x="32.96" y="6.2" width="1" height="221.68"/><rect class="cls-1" x="7.46" y="31.7" width="219.16" height="1"/><rect class="cls-1" x="174.12" y="6.2" width="1" height="221.68"/><rect class="cls-1" x="58.96" y="6.2" width="1" height="221.68"/><rect class="cls-1" x="7.46" y="175.38" width="219.16" height="1"/><rect class="cls-1" x="7.46" y="57.7" width="219.16" height="1"/><rect class="cls-1" x="7.46" y="201.38" width="219.16" height="1"/></svg>