<?xml version="1.0" encoding="utf-8"?>
<!-- Generator: Adobe Illustrator 28.2.0, SVG Export Plug-In . SVG Version: 6.00 Build 0)  -->
<svg version="1.1" id="Layer_2_00000080890347904294529150000001936905835586849695_"
	 xmlns="http://www.w3.org/2000/svg" xmlns:xlink="http://www.w3.org/1999/xlink" x="0px" y="0px" viewBox="0 0 648 271.4"
	 style="enable-background:new 0 0 648 271.4;" xml:space="preserve">
<style type="text/css">
	.st0{fill:#42F2F7;}
	.st1{fill:#69AEBB;}
</style>
<path class="st0" d="M118.9,131.3H72.7c-33.6,0-60.9-27.3-60.9-60.9S39.1,9.5,72.7,9.5h46.2c7.2,0,13,5.8,13,13s-5.8,13-13,13H72.7
	c-19.2,0-34.9,15.7-34.9,34.9s15.7,34.9,34.9,34.9h46.2c7.2,0,13,5.8,13,13S126.1,131.3,118.9,131.3z"/>
<path class="st0" d="M118,179.2H71.8c-7.2,0-13-5.8-13-13s5.8-13,13-13H118c19.2,0,34.9-15.6,34.9-34.9S137.3,83.4,118,83.4H71.8
	c-7.2,0-13-5.8-13-13s5.8-13,13-13H118c33.6,0,60.9,27.3,60.9,60.9S151.6,179.2,118,179.2z"/>
<path class="st0" d="M214,261.9c-7.2,0-13-5.8-13-13v-42c-3.3-0.9-6.5-2.2-9.7-3.6c-4.8-2.2-9.5-5.1-13.9-8.4
	c-4.8-3.7-9.1-8.2-12.7-13.4c-3.6-5.2-6.5-11.1-8.6-17.6c-2.1-6.6-3.2-13.8-3.2-21.5v-24c0-7.2,5.8-13,13-13s13,5.8,13,13v24
	c0,5,0.6,9.6,1.9,13.5c1.3,4,3,7.6,5.1,10.6c2.1,3,4.6,5.7,7.4,7.8c2.8,2.2,5.7,4,8.8,5.4c3,1.4,6.1,2.4,9.2,3
	c1.2,0.2,2.1,0.5,2.7,0.6c0.4,0.1,0.7,0.2,1,0.2c6.8,0.6,11.9,6.2,11.9,13v52.4C227,256,221.2,261.9,214,261.9L214,261.9z"/>
<path class="st0" d="M267.2,250.3c-7.2,0-13-5.8-13-13v-40.4c0-6.8,5.2-12.4,12-13c0.3,0,0.6-0.1,1.1-0.2c0.7-0.2,1.5-0.4,2.7-0.6
	c3.1-0.6,6.2-1.6,9.2-3c3-1.4,6-3.2,8.8-5.3c2.8-2.2,5.3-4.8,7.4-7.8s3.8-6.6,5.1-10.6c1.6-4.9,1.9-7.4,1.9-8.6c0-7.2,5.8-13,13-13
	s13,5.8,13,13c0,4.6-1,9.7-3.2,16.5c-2.1,6.4-4.9,12.2-8.5,17.4c-3.6,5.3-8,9.9-13,13.7c-4.3,3.3-8.9,6.1-13.7,8.3
	c-3.2,1.5-6.5,2.7-9.8,3.7v30C280.2,244.5,274.4,250.3,267.2,250.3L267.2,250.3z"/>
<path class="st0" d="M260.1,161.7H215c-7.2,0-13-5.8-13-13s5.8-13,13-13h39.1V99.4c0-7.2,5.8-13,13-13s13,5.8,13,13v43.3
	c0,3.3-0.4,6-1.3,8.2c-0.2,0.4-0.3,0.8-0.5,1.2c-0.8,1.6-1.8,2.9-2.9,4.1c-0.5,0.5-1.1,1-1.7,1.4c-1.8,1.2-3.7,2.1-5.9,2.7
	c0,0-0.1,0-0.1,0c-1.8,0.4-3.6,0.8-5.3,1.1C261.6,161.6,260.8,161.7,260.1,161.7L260.1,161.7z M254,143.4L254,143.4z"/>
<path class="st0" d="M503.3,179.2h-45.1c-3.7,0-7.6-0.4-11.6-1.2c-4-0.8-8-2.1-12-3.9c-4.1-1.8-8-4.1-11.6-6.9
	c-4.1-3.1-7.7-6.9-10.7-11.3c-3.1-4.4-5.5-9.3-7.2-14.7c-1.7-5.4-2.6-11.4-2.6-17.7V65.3c0-3.7,0.4-7.6,1.2-11.6c0.8-4,2.1-8,3.9-12
	c1.9-4.2,4.3-8.1,7.1-11.8c3.1-4,6.9-7.6,11.2-10.5c4.3-3,9.3-5.5,14.6-7.2c5.5-1.8,11.4-2.6,17.7-2.6h72.6c7.2,0,13,5.8,13,13
	s-5.8,13-13,13h-72.6c-3.6,0-6.9,0.5-9.8,1.4c-2.9,0.9-5.4,2.2-7.6,3.7c-2.2,1.5-4.1,3.3-5.6,5.3c-1.6,2-2.9,4.1-3.8,6.3
	c-1,2.2-1.7,4.5-2.1,6.7c-0.5,2.3-0.7,4.4-0.7,6.3v58.2c0,3.6,0.5,6.9,1.4,9.8c0.9,2.9,2.2,5.5,3.7,7.6c1.5,2.2,3.3,4.1,5.3,5.6
	c2,1.6,4.1,2.8,6.3,3.8c2.2,1,4.5,1.7,6.7,2.1c2.3,0.5,4.4,0.7,6.3,0.7h45.1c7.2,0,13,5.8,13,13S510.5,179.2,503.3,179.2
	L503.3,179.2z"/>
<path class="st0" d="M391.3,229.5c-4.4,0-8.9-0.8-13.1-2.4c-5.2-1.9-9.7-4.9-13.6-9l-58.7-61.3c-5-5.2-4.8-13.4,0.4-18.4
	c5.2-5,13.4-4.8,18.4,0.4l58.7,61.3c1.1,1.2,2.4,2,3.8,2.5c3,1.1,5.9,1,8.5-0.1c1.3-0.5,2.5-1.4,3.5-2.4c1-1,1.8-2.1,2.4-3.5
	c0.6-1.4,0.9-2.9,0.9-4.5v-65.4c0-7.2,5.8-13,13-13s13,5.8,13,13v65.4c0,5.2-1,10.2-3.1,14.9c-1.9,4.3-4.5,8.2-7.9,11.5
	c-3.4,3.3-7.5,6.1-11.9,7.9C401.1,228.5,396.3,229.5,391.3,229.5L391.3,229.5z"/>
<path class="st0" d="M267,111.7c-7.2,0-13-5.8-13-13V84.6c0-7.7,2.2-15,6.4-21.3c3.9-5.9,9.1-10.5,15.4-13.4c0,0,0.1,0,0.1-0.1
	l0.3-0.1c0.1-0.1,0.2-0.1,0.4-0.2l0.3-0.1c6.8-2.9,14.2-3.7,21.5-2.2c7.5,1.5,14.3,5.3,19.6,11c0.1,0.1,0.2,0.2,0.3,0.3l25.2,29.2
	c4.7,5.4,4.1,13.6-1.3,18.3c-5.4,4.7-13.6,4.1-18.3-1.3l-25-28.9c-1.6-1.6-3.4-2.7-5.5-3.1c-2.2-0.4-4.2-0.2-6.2,0.6l0,0
	c-2,1-3.6,2.4-4.9,4.3c-1.3,2-2,4.4-2,6.9v14.1C280.1,105.9,274.2,111.7,267,111.7L267,111.7z"/>
<path class="st0" d="M531,131.4h-69.4c-7.2,0-13-5.8-13-13V68.6c0-7.1,5.8-12.9,12.9-13l40.6-0.3h0.1c7.1,0,12.9,5.8,13,12.9
	c0.1,7.2-5.7,13.1-12.9,13.1l-27.7,0.2v23.9H531c7.2,0,13,5.8,13,13S538.2,131.4,531,131.4L531,131.4z"/>
<path class="st0" d="M214.9,83.4c-33.6,0-60.9-27.3-60.9-60.9c0-7.2,5.8-13,13-13s13,5.8,13,13c0,19.2,15.6,34.9,34.9,34.9
	s34.9-15.7,34.9-34.9c0-7.2,5.8-13,13-13s13,5.8,13,13C275.8,56.1,248.5,83.4,214.9,83.4z"/>
<path class="st0" d="M361.1,72.5h-11.5c-7.2,0-13-5.8-13-13s5.8-13,13-13h11.5c3,0,5.5-2.5,5.5-5.5s-2.5-5.5-5.5-5.5h-47.5
	c-7.2,0-13-5.8-13-13s5.8-13,13-13h47.5c17.4,0,31.5,14.1,31.5,31.5S378.4,72.5,361.1,72.5z"/>
<path class="st0" d="M371.1,131.5H371l-15.4-0.1c-7.2-0.1-13-5.9-12.9-13.1c0.1-7.1,5.9-12.9,13-12.9h0.1l15.3,0.1
	c9.1,0,16.5-7.4,16.5-16.5s-7.4-16.5-16.5-16.5h-21.5c-7.2,0-13-5.8-13-13s5.8-13,13-13h21.5c23.4,0,42.5,19.1,42.5,42.5
	S394.6,131.5,371.1,131.5L371.1,131.5z"/>
<path class="st0" d="M620.1,131.1c-3.3,0-6.5-1.2-9.1-3.7l-46.4-45.1c-3.8-3.7-5-9.3-3-14.2s6.8-8.1,12-8.1H598
	c6.7,0,12.2-5.5,12.2-12.2s-5.5-12.2-12.2-12.2h-24.3c-7.2,0-13-5.8-13-13s5.8-13,13-13H598c21.1,0,38.2,17.1,38.2,38.2
	c0,18.7-13.5,34.2-31.2,37.5l24.1,23.5c5.2,5,5.3,13.2,0.2,18.4C626.9,129.8,623.5,131.1,620.1,131.1L620.1,131.1z"/>
<path class="st0" d="M214.9,131.3c-7.2,0-13-5.8-13-13V70.4c0-7.2,5.8-13,13-13s13,5.8,13,13v47.9
	C227.9,125.5,222.1,131.3,214.9,131.3z"/>
<rect y="22" class="st1" width="648" height="1"/>
<rect y="117.8" class="st1" width="648" height="1"/>
<rect x="530.3" class="st1" width="1" height="144.6"/>
</svg>
