<?xml version="1.0" encoding="utf-8"?>
<!-- Generator: Adobe Illustrator 27.5.0, SVG Export Plug-In . SVG Version: 6.00 Build 0)  -->
<svg version="1.1" id="_x30_" xmlns="http://www.w3.org/2000/svg" xmlns:xlink="http://www.w3.org/1999/xlink" x="0px" y="0px"
	 viewBox="0 0 100 100" style="enable-background:new 0 0 100 100;" xml:space="preserve">
<g id="LWPOLYLINE">
	<path d="M68.2,58.3h23.5c4.6,0,8.3-3.7,8.3-8.3s-3.7-8.3-8.3-8.3H68.2c-4.6,0-8.3,3.7-8.3,8.3S63.6,58.3,68.2,58.3z">
		<animateTransform attributeName="transform"
			attributeType="XML"
			type="rotate"
			from="0 50 50"
			to="360 50 50"
			dur="4s"
			repeatCount="indefinite" />
	</path>
</g>
<g id="LWPOLYLINE_00000170980524378302770260000014248361539580039572_">
	<path d="M91,78.7c2.6-3.8,1.7-9-2-11.6c-3.8-2.6-9-1.7-11.6,2c-2.2,3.2-5,6-8.2,8.2C54,87.9,33.3,84.2,22.7,69.1
		s-6.9-35.9,8.2-46.4s35.9-6.9,46.4,8.2c2.6,3.8,7.8,4.7,11.6,2c3.8-2.6,4.7-7.8,2-11.6C75.1-1.3,43.9-6.8,21.3,9S-6.8,56.1,9,78.7
		s47,28.1,69.6,12.3C83.5,87.6,87.6,83.5,91,78.7z"/>
</g>
</svg>
