<?xml version="1.0" encoding="UTF-8"?>
<svg id="Layer_1" xmlns="http://www.w3.org/2000/svg" version="1.1" viewBox="0 0 216.2 231.7">
  <!-- Generator: Adobe Illustrator 29.5.1, SVG Export Plug-In . SVG Version: 2.1.0 Build 141)  -->
  <defs>
    <style>
      .st0 {
        fill: #42f2f7;
      }
    </style>
  </defs>
  <path class="st0" d="M131,146.5h-46.2c-33.6,0-60.9-27.3-60.9-60.9s27.3-60.9,60.9-60.9h46.2c7.2,0,13,5.8,13,13s-5.8,13-13,13h-46.2c-19.2,0-34.9,15.7-34.9,34.9s15.7,34.9,34.9,34.9h46.2c7.2,0,13,5.8,13,13s-5.8,13-13,13Z"/>
  <path class="st0" d="M130.1,194.4h-46.2c-7.2,0-13-5.8-13-13s5.8-13,13-13h46.2c19.2,0,34.9-15.7,34.9-34.9s-15.7-34.9-34.9-34.9h-46.2c-7.2,0-13-5.8-13-13s5.8-13,13-13h46.2c33.6,0,60.9,27.3,60.9,60.9s-27.3,60.9-60.9,60.9Z"/>
</svg>