<?xml version="1.0" encoding="UTF-8"?><svg id="Layer_1" xmlns="http://www.w3.org/2000/svg" viewBox="0 0 472.58 296.77"><defs><style>.cls-1{fill:#000;}.cls-1,.cls-2{stroke-width:0px;}.cls-2{fill:#fff;}.cls-3{fill:none;stroke:#000;stroke-miterlimit:10;stroke-width:30px;}</style></defs><rect class="cls-2" x="15" y="15" width="442.58" height="266.77"/><path class="cls-1" d="M442.58,30v236.77H30V30h412.58M472.58,0H0v296.77h472.58V0h0Z"/><path class="cls-1" d="M400.24,30c-12.82,12.36-27.28,25.93-42.39,39.45-28.81,25.79-54.13,46.23-75.26,60.73-33.74,23.16-45.81,23.42-46.31,23.42s-12.53-.27-46.18-23.34c-21.09-14.46-46.36-34.84-75.11-60.57-15.19-13.59-29.74-27.26-42.65-39.69h327.9M472.58,0H0s173.8,183.61,236.29,183.61S472.58,0,472.58,0h0Z"/><line class="cls-3" x1="452.1" y1="275.77" x2="305.39" y2="141.95"/><line class="cls-3" x1="20.48" y1="275.77" x2="167.19" y2="141.95"/></svg>