<?xml version="1.0" encoding="UTF-8"?><svg id="Layer_1" xmlns="http://www.w3.org/2000/svg" viewBox="0 0 472.58 296.77"><defs><style>.cls-1{fill:#231f20;}.cls-1,.cls-2{stroke-width:0px;}.cls-3{fill:none;stroke:#231f20;stroke-miterlimit:10;stroke-width:15px;}.cls-2{fill:#fff;}</style></defs><rect class="cls-2" x="7.5" y="7.5" width="457.58" height="281.77"/><path class="cls-1" d="M457.58,15v266.77H15V15h442.58M472.58,0H0v296.77h472.58V0h0Z"/><path class="cls-1" d="M436.92,15c-17.37,17.39-42.2,41.58-69.05,65.63-88.68,79.4-121.55,87.98-131.57,87.98s-42.86-8.56-131.44-87.86C77.97,56.68,53.07,32.42,35.67,15h401.25M472.58,0H0s173.8,183.61,236.29,183.61S472.58,0,472.58,0h0Z"/><line class="cls-3" x1="6.56" y1="289.76" x2="167.19" y2="141.95"/><line class="cls-3" x1="466.02" y1="289.76" x2="305.39" y2="141.95"/></svg>