<?xml version="1.0" encoding="UTF-8"?><svg id="Layer_1" xmlns="http://www.w3.org/2000/svg" viewBox="0 0 432 432"><defs><style>.cls-1{fill:#ed1c24;stroke-width:0px;}</style></defs><path class="cls-1" d="M332.04,226.42c2.58,38.29-11.35,36.32-17.76-10.7-5.1-37.41-25.65-70.92-51.2-94.89,7.56,17.45,22.79,38.1,24.1,86.61.54,19.84-13.52,36.99-31.86,39.07-15.7,1.78-6.6-28.28-5.09-61.88,3.1-68.88-23.34-135.34-72.46-157.74,22.86,28.99,22.5,53.25,15.26,82.58-7.35,29.75-32.12,81.98-46.28,81.98s-5.15-27.02-41.61-49.33c25.31,17.16-15.03,58.34-15.03,140.9,0,70.15,57.09,127.5,127.5,127.5-19.88,0-53.1-20.62-72.92-68.4s-.51-104.71,38.12-148.43c-28.27,52.78-5.55,99.1,39.44,115.86,37.4,13.93,45.95,33,45.95,62.56,0,25.48-24.5,38.41-50.6,38.41,70.42,0,127.5-50.92,127.5-127.5,0,0-.18-38.52-13.09-56.59Z"/></svg>